PathFileType	4	(X/Y/Z)	C:/Users/opensim2020/Desktop/walking_exp_matlab/subject01_walking12_straight_01.trc	
DataRate	CameraRate	NumFrames	NumMarkers	Units	OrigDataRate	OrigDataStartFrame	OrigNumFrames	
100.00	100.00	4	44	mm	100.00	787	193	
Frame#	Time	LFHD			RFHD			LBHD			RBHD			C7			T10			CLAV			STRN			RBAK			LSHO			LUPA			LELB			LFRM			LWRA			LWRB			LFIN			RSHO			RUPA			RELB			RFRM			RWRA			RWRB			RFIN			LASI			RASI			LPSI			RPSI			LTHI			LKNE			LTIB			LANK			LHEE			LTOE			RTHI			RKNE			RTIB			RANK			RHEE			RTOE			*39			*40			*41			*42			*43			
		X1	Y1	Z1	X2	Y2	Z2	X3	Y3	Z3	X4	Y4	Z4	X5	Y5	Z5	X6	Y6	Z6	X7	Y7	Z7	X8	Y8	Z8	X9	Y9	Z9	X10	Y10	Z10	X11	Y11	Z11	X12	Y12	Z12	X13	Y13	Z13	X14	Y14	Z14	X15	Y15	Z15	X16	Y16	Z16	X17	Y17	Z17	X18	Y18	Z18	X19	Y19	Z19	X20	Y20	Z20	X21	Y21	Z21	X22	Y22	Z22	X23	Y23	Z23	X24	Y24	Z24	X25	Y25	Z25	X26	Y26	Z26	X27	Y27	Z27	X28	Y28	Z28	X29	Y29	Z29	X30	Y30	Z30	X31	Y31	Z31	X32	Y32	Z32	X33	Y33	Z33	X34	Y34	Z34	X35	Y35	Z35	X36	Y36	Z36	X37	Y37	Z37	X38	Y38	Z38	X39	Y39	Z39	X40	Y40	Z40	X41	Y41	Z41	X42	Y42	Z42	X43	Y43	Z43	X44	Y44	Z44	

169	1.680	-1072.22375	681.76923	1663.57397	-957.48419	684.74829	1668.62659	-1075.80884	567.38788	1614.32471	-954.40204	567.61096	1618.10364	-1031.50696	529.82153	1423.74805	-1025.35889	490.34995	1130.78796	-1024.61572	672.12170	1353.16895	-1025.73950	713.61420	1198.32568	-951.77252	470.12860	1230.75342	-1188.76038	618.46564	1382.81335	-1270.39783	567.31171	1200.97839	-1263.36462	530.67572	1055.94019	-1284.86597	545.15735	943.18799	-1263.59485	595.83783	812.84833	-1287.90845	541.11133	820.80505	-1291.88440	568.12933	738.88623	-876.47162	603.95746	1383.12866	-764.43781	576.46326	1185.40051	-750.09027	604.88116	1061.03430	-731.88037	685.07422	965.22198	-772.03534	802.74689	897.66302	-727.28839	771.42371	878.74597	-735.25836	840.56183	832.23370	-1115.94592	677.86877	923.86090	-899.47076	648.09607	921.43707	-1093.68176	486.83133	933.32941	-952.03369	468.26205	942.47961	-1188.70239	734.49896	611.57086	-1166.87720	764.68622	484.06018	-1184.48413	778.16620	298.48312	-1139.89673	837.31903	81.04939	-1087.93604	802.77765	37.19895	-1130.54883	985.79620	90.74847	-864.55890	523.37109	599.15466	-894.57294	493.71893	440.08707	-903.50244	380.36746	302.95691	-963.93243	283.52200	121.78094	-1018.66138	227.83878	107.91821	-968.81763	400.02115	36.62076	-980.85126	673.20947	1701.62195	-3101.91772	1973.11047	1023.32074	-3140.68384	2012.44739	1021.95721						 
170	1.690	-1072.90527	692.48145	1662.61523	-958.38123	695.01556	1667.83411	-1077.08997	578.32440	1612.85205	-955.65887	578.18646	1616.72498	-1032.83228	541.34924	1422.36780	-1026.29089	502.76178	1129.37512	-1025.58777	683.80780	1352.24463	-1026.42798	725.75134	1197.51147	-952.96631	481.81424	1229.44153	-1190.03223	630.21942	1381.57092	-1271.44299	579.36096	1199.60730	-1264.74963	543.10797	1054.63672	-1285.82031	557.77637	941.75787	-1263.77234	608.13684	811.45209	-1288.57019	553.77783	819.32068	-1292.13428	580.68750	737.42462	-877.61731	615.23846	1382.04956	-765.48291	586.54382	1184.51733	-750.86243	614.58246	1060.14648	-732.44275	694.56348	964.09839	-772.34778	812.36340	896.40149	-727.29718	780.87079	877.66113	-735.44934	849.86115	830.77600	-1116.33569	691.11731	923.21655	-899.85480	660.46643	920.18854	-1094.53528	499.84512	932.30658	-952.85645	480.85669	941.19409	-1185.83472	749.86829	611.72699	-1164.71948	778.33710	483.33334	-1182.56958	787.86389	296.26157	-1137.80945	842.25562	78.13061	-1086.99329	805.64862	36.92927	-1127.30554	990.94373	84.64046	-864.52655	535.16803	598.12793	-893.90558	504.65375	438.79477	-902.72168	388.12793	304.36047	-962.42114	287.32605	125.30825	-1017.26221	230.90054	113.32961	-968.57019	400.45370	36.61039	-981.95874	683.40637	1700.72742	-3101.87598	1973.16699	1023.52655	-3140.65576	2012.50708	1022.08990						 
171	1.700	-1073.85291	703.06879	1661.63513	-959.37048	705.21991	1666.95715	-1078.36304	589.20007	1611.23584	-957.03064	588.61499	1615.12463	-1034.35156	552.77283	1420.91370	-1027.36011	515.38916	1127.81152	-1026.71606	695.55847	1351.26245	-1027.16943	738.08008	1196.70117	-954.11554	493.61661	1228.04907	-1191.24707	642.08716	1380.29944	-1272.64258	591.56244	1198.24634	-1266.06677	555.77057	1053.18103	-1286.87366	570.77051	940.33087	-1264.04138	620.92389	810.07550	-1289.48743	566.79950	817.86768	-1292.55212	593.84497	735.99188	-878.99554	626.51514	1380.95239	-766.69409	596.84973	1183.84875	-751.68713	624.11920	1059.30457	-733.03271	703.67792	962.87952	-772.61536	820.97845	894.68555	-728.02435	789.46606	875.97565	-735.74695	858.62091	829.01178	-1116.76196	704.55310	922.56006	-900.30560	673.05420	918.83624	-1095.35229	513.03320	931.18439	-953.98016	493.68246	939.79150	-1182.61877	764.65771	611.45789	-1162.71777	791.92908	482.29913	-1180.71240	797.28888	293.77277	-1135.89819	845.60663	75.52646	-1086.00891	807.45972	37.35670	-1122.94153	995.28473	75.74438	-864.60834	547.58783	596.84351	-893.01392	516.64447	437.54666	-901.95105	396.46396	306.10989	-961.37323	290.78586	129.47607	-1016.14508	234.59839	119.24120	-968.53046	400.91565	36.60902	-982.96179	693.49005	1699.77209	-3102.02148	1973.02881	1023.43066	-3140.70776	2012.54907	1021.96027						 
172	1.710	-1074.87207	713.60663	1660.94287	-960.23047	715.23413	1666.23035	-1079.81982	600.09772	1609.66260	-958.46991	599.01007	1613.51453	-1036.08118	564.07581	1419.58936	-1028.42444	528.12988	1126.19702	-1027.91687	707.32220	1350.30371	-1027.98523	750.52777	1196.01526	-955.58301	505.61438	1226.67639	-1192.69580	654.12329	1379.12183	-1273.90515	603.97095	1196.84656	-1267.50952	568.76947	1051.78052	-1287.88501	584.10901	938.77863	-1264.31812	634.16846	808.66962	-1290.26831	580.31689	816.34949	-1293.02490	607.54938	734.54462	-880.40161	637.78412	1379.94397	-767.86310	606.78607	1182.89465	-752.69305	633.50177	1058.30383	-733.65216	712.61237	961.53613	-772.95032	829.72656	892.78552	-728.22528	798.28253	874.29224	-736.03882	866.96606	826.90363	-1117.04553	717.72656	921.91943	-900.71851	686.25006	917.75128	-1096.51160	526.13397	930.03705	-954.80536	506.52533	938.36743	-1179.22852	778.66357	610.61127	-1161.68604	805.15735	480.96841	-1177.97668	806.46606	291.64719	-1134.81812	850.37598	74.71354	-1086.25500	809.68060	38.95561	-1119.27478	1000.25519	65.49653	-864.51764	560.74988	595.51703	-892.16260	529.14337	436.01868	-901.28180	405.23413	307.88065	-960.09247	295.36133	133.61848	-1014.87921	239.17747	125.67878	-968.04358	401.56857	36.62424	-983.90546	703.34155	1698.84888	-3101.90649	1973.09595	1023.29419	-3140.68042	2012.45581	1021.93500						 
